<?xml version="1.0" encoding="iso-8859-1"?>
<!-- Uploaded to: SVG Repo, www.svgrepo.com, Generator: SVG Repo Mixer Tools -->
<svg height="800px" width="800px" version="1.1" id="Capa_1" xmlns="http://www.w3.org/2000/svg" xmlns:xlink="http://www.w3.org/1999/xlink" 
	 viewBox="0 0 259.743 259.743" xml:space="preserve">
<g>
	<path style="fill:#010002;" d="M14.308,164.236c0.044,28.223,0.468,56.322,4.552,84.322c1.333,9.132,13.016,11.797,19.972,8.121
		c25.7-13.549,49.071-30.785,73.041-47.113c53.167,4.226,109.363-5.831,136.803-56.996c21.033-39.221,10.867-88.26-20.206-118.778
		C189.103-4.881,114.838-3.744,65.62,10.811C2.097,29.602-15.961,110.182,14.308,164.236z M35.422,67.953
		c9.839-22.034,32.58-30.747,54.619-35.136c39.167-7.794,92.263-6.249,122.276,23.23c22.964,22.55,25.656,58.981,10.9,86.481
		c-21.533,40.151-70.561,43.159-110.821,39.912c-2.154-0.865-4.563-1.044-7.098-0.326c-3.492,0.348-6.043,2.029-7.74,4.378
		c-18.074,12.325-35.838,25.123-54.516,36.474c-1.741-21.158-1.539-42.506-1.55-63.691c0-3.633-1.599-6.967-4.047-9.442
		C24.528,125.586,24.288,92.891,35.422,67.953z"/>
</g>
</svg>